<?xml version="1.0" encoding="utf-8"?>
<!-- Generator: Adobe Illustrator 16.0.0, SVG Export Plug-In . SVG Version: 6.00 Build 0)  -->
<!DOCTYPE svg PUBLIC "-//W3C//DTD SVG 1.1//EN" "http://www.w3.org/Graphics/SVG/1.1/DTD/svg11.dtd">
<svg version="1.1" id="圖層_1" xmlns="http://www.w3.org/2000/svg" xmlns:xlink="http://www.w3.org/1999/xlink" x="0px" y="0px"
	 width="885px" height="272px" viewBox="0 0 885 272" enable-background="new 0 0 885 272" xml:space="preserve">
<title>trello-logo-white</title>
<desc>Created with Sketch.</desc>
<path fill="#BFBFBF" d="M723.294,178.59c-12.77,5.203-22.85,23.18-38.176,33.4c-0.95,0.632-1.9,0.949-2.534,0.949
	c-1.267,0-2.85-1.268-2.85-6.97c0-19.642,6.335-29.146,11.72-43.085c18.692-48.47,50.688-89.97,79.2-135.274
	c2.218-3.484,3.484-7.285,3.484-11.404c0-3.484-1.268-6.336-2.852-9.82C770.02,3.534,764.318,1,757.982,1
	c-3.484,0-6.652,0.317-10.771,0.317c-14.89,0-18.058,21.86-21.543,27.56c-23.76,40.235-51.006,89.973-64.945,125.137
	c-3.057,7.883-6.359,15.768-8.868,23.857c-13.774,3.99-24.095,23.357-40.235,34.12c-0.95,0.632-1.9,0.95-2.534,0.95
	c-1.267,0-2.85-1.269-2.85-6.971c0-19.642,6.335-29.146,11.72-43.085c18.692-48.47,50.689-89.97,79.2-135.274
	c2.218-3.484,3.485-7.285,3.485-11.404c0-3.484-1.268-6.336-2.852-9.82C696.523,3.534,690.82,1,684.485,1
	c-3.485,0-6.653,0.317-10.771,0.317c-14.89,0-18.06,21.86-21.544,27.56c-23.76,40.235-51.004,89.973-64.943,125.137
	c-1.107,2.858-2.247,5.717-3.372,8.584c-0.346,0.186-0.699,0.387-1.063,0.604c-16.157,9.504-29.78,26.294-49.42,37.7
	c-3.802,2.216-15.524,10.453-25.028,10.453c-2.218,0-4.118-0.633-6.02-1.584c-2.851-1.267-5.702-7.285-5.702-9.187
	c0-1.584,0.316-1.899,3.485-3.802c27.88-16.79,50.688-40.867,70.329-64.944c7.286-8.87,16.79-26.294,16.79-38.966
	c0-8.237-2.85-17.74-12.672-21.226c-6.97-2.534-14.89-3.8-21.225-3.8c-16.79,0-29.146,7.602-36.116,14.888
	c-7.095,7.575-13.958,15.353-20.335,23.405c-6.663-5.753-16.06-8.2-24.968-8.2c-10.454,0-30.096,12.99-40.234,20.593
	c-1.584,1.267-2.534,1.9-3.168,1.9c-0.315,0-0.633-0.316-0.633-0.95c0-0.317,0.633-3.168,0.633-8.237
	c0-4.435-0.95-10.137-5.067-17.107c-0.95-1.585-6.653-5.07-13.623-5.07c-8.555,0-16.474,4.12-16.474,8.554
	c0,3.168,2.85,4.435,2.85,7.286c0,1.584-1.266,8.87-3.167,15.84c-5.387,20.276-12.04,40.233-19.01,60.192
	c-3.8,11.088-16.473,20.91-16.473,32.947c0,3.801,2.535,8.87,6.02,12.672c5.702,6.336,9.187,8.554,14.255,8.554
	c2.218,0,4.752-0.634,6.97-2.534c4.752-4.118,7.286-8.236,8.554-13.938c8.236-37.384,31.996-62.728,58.29-79.518
	c8.87-5.703,20.91-11.722,22.494-11.722c1.624,0,4.164,0.75,6.724,1.48c-7.35,11.99-13.306,24.633-17.18,38.12
	c-1.266,4.435-1.9,8.554-1.9,12.99c0,7.284,1.585,14.89,4.12,22.175c3.484,10.139,9.187,19.008,17.106,23.126
	c14.573,7.604,25.027,11.722,34.53,11.722c5.387,0,9.505-0.949,13.939-3.484c20.823-11.78,33.59-20.719,42.808-28.656
	c0.253,8.05,1.84,12.508,7.564,18.52c5.702,6.021,14.572,11.404,26.294,13.94c1.9,0.315,3.802,0.632,5.702,0.632
	c13.41,0,26.318-10.9,36.271-21.705c1.151,2.357,2.826,4.609,5.229,7.133c5.704,6.021,14.574,11.404,26.296,13.94
	c1.9,0.315,3.8,0.632,5.702,0.632c15.71,0,30.727-14.957,41.114-27.199c3.462,7.162,13.137,14.239,24.78,19.914
	c3.168,1.584,6.97,2.533,10.455,2.533c13.621,0,23.442-11.088,31.046-19.324c19.643-21.543,30.414-48.154,38.649-81.734
	c0.634-2.534,1.585-3.485,2.853-3.485c3.168,0,7.286,0,11.722-0.633c8.553-1.267,15.206-4.12,23.126-5.386
	c4.752-0.95,4.118-2.533,8.554-4.117c3.168-1.267,5.702-2.535,5.702-5.703c0-5.385-9.819-11.088-24.71-11.088
	c-11.722,0-18.691,0.95-23.443,0.95c-7.286,0-9.188-2.217-13.94-14.572c0,0,4.753,12.355,0,0c-0.95-2.534-1.9-3.802-4.75-6.336
	c-6.654-5.702-14.89-7.603-21.543-7.603c-15.84,0-29.464,16.158-38.968,29.78c-2.218,3.168-5.386,5.702-7.604,9.187
	c-13.05,19.575-25.545,41.65-27.086,65.443L723.294,178.59z M318.264,70.696c7.92,0,12.355-0.634,13.306-0.634
	c0.95,0,1.584,0.317,1.584,1.268c0,0.633-0.317,1.584-2.535,6.336c-19.326,41.5-32.63,83.635-44.353,130.204
	c-0.317,1.269-1.267,6.021-1.267,10.772c0,4.435,1.267,9.187,5.702,11.719c8.554,5.07,15.524,7.289,20.276,7.289
	c6.97,0,10.454-4.437,10.454-11.723c0-6.336,0.317-12.99,1.267-18.058c8.87-46.57,22.175-83,42.767-121.017
	c9.82-18.058,11.088-19.008,11.088-20.592c0-0.633-0.317-1.583-0.95-2.534c12.672-2.85,27.878-4.752,41.817-4.752
	c1.584,0,7.92,2.218,8.87,3.168c2.218,2.218,4.437,4.436,8.238,4.436c3.168,0,8.553-2.218,10.454-3.485
	c4.435-3.168,6.652-6.653,6.652-12.354c0-5.386-19.96-18.692-33.897-18.692c-17.108,0-32.63,2.218-47.204,5.07
	c-6.336,1.266-29.146,4.75-45.62,4.75c-15.84,0-14.89-2.216-21.542-2.216c-3.8,0-5.702,1.9-7.286,3.484s-2.534,7.92-2.534,13.623
	c0,2.85,0,5.07,1.584,6.97c4.752,5.702,13.94,6.97,23.126,6.97c0,0-9.187,0,0,0L318.264,70.696z M553.014,96.356
	c0,2.852-0.951,4.753-4.753,10.772c-3.8,6.02-2.217,6.02-6.97,12.355c-9.186,12.355-20.59,24.71-35.48,38.333
	c-4.119,3.802-4.752,3.802-5.386,3.802c-0.316,0-0.95-0.317-0.95-0.95c0-0.95,0.316-2.218,3.484-8.87
	c9.82-20.593,21.86-34.216,35.165-47.52c7.287-7.288,11.722-9.822,13.306-9.822C552.38,94.456,553.013,94.773,553.014,96.356
	C553.013,96.356,553.013,94.773,553.014,96.356L553.014,96.356z M796.632,104.594c0.317,0,0.634,0.316,0.95,0.95
	c0.317,0.95,0.95,1.9,2.535,3.168c1.267,0.95,1.267,5.386,1.267,8.87c0,30.73-17.424,56.074-34.53,81.734
	c-3.803,5.703-6.02,6.654-7.92,6.654c-1.585,0-4.119-4.121-5.069-6.654c-1.268-3.484-1.584-7.603-1.584-9.187
	c0-24.71,23.442-61.46,38.966-81.735c2.535-3.485,4.436-3.8,5.386-3.8c0,0-0.95,0,0,0V104.594z"/>
<path fill="#BFBFBF" d="M75,36c-13.807,0-25,11.2-25,25v150c0,13.807,11.2,25,25,25h150c13.806,0,25-11.2,25-25V61
	c0-13.807-11.2-25-25-25H75z"/>
<path fill="#FFFFFF" d="M174.997,62C168.37,62,163,67.372,163,74.006v63.988c0,6.63,5.373,12.006,11.997,12.006h37.006
	c6.626,0,11.997-5.372,11.997-12.006V74.006C224,67.376,218.627,62,212.003,62H174.997z"/>
<path fill="#FFFFFF" d="M87.997,62C81.37,62,76,67.367,76,74.005v113.99C76,194.625,81.373,200,87.997,200h37.006
	c6.626,0,11.997-5.367,11.997-12.005V74.005C137,67.375,131.627,62,125.003,62H87.997z"/>
</svg>
